# xmcd CD database file
#
# Track frame offsets:
#	150
#	21047
#	54922
#	92427
#	125154
#	168100
#	217840
#	260327
#
# Disc length: 4208 seconds
#
# Revision: 0
# Processed by: cddbd v1.4PL0 Copyright (c) Steve Scherf et al.
# Submitted via: CDex 1.51
#
DISCID=5c106e08
DTITLE=Ted Scotto - Best of Ted Scotto - Vox Terrae
DYEAR=1997
DGENRE=New Age
TTITLE0=Nature
TTITLE1=Decouvertes
TTITLE2=Ocean
TTITLE3=Desert
TTITLE4=Space
TTITLE5=Grand Canyon
TTITLE6=Reves
TTITLE7=Source
EXTD=YEAR: 1997
EXTT0=
EXTT1=
EXTT2=
EXTT3=
EXTT4=
EXTT5=
EXTT6=
EXTT7=
PLAYORDER=
